<?xml version="1.0" encoding="UTF-8" standalone="no"?>
<svg
   version="1.1"
   x="0px"
   y="0px"
   viewBox="0 0 100 100"
   id="svg2"
   inkscape:version="1.3 (0e150ed6c4, 2023-07-21)"
   sodipodi:docname="edit-page.svg"
   xmlns:inkscape="http://www.inkscape.org/namespaces/inkscape"
   xmlns:sodipodi="http://sodipodi.sourceforge.net/DTD/sodipodi-0.dtd"
   xmlns="http://www.w3.org/2000/svg"
   xmlns:svg="http://www.w3.org/2000/svg"
   xmlns:rdf="http://www.w3.org/1999/02/22-rdf-syntax-ns#"
   xmlns:cc="http://creativecommons.org/ns#"
   xmlns:dc="http://purl.org/dc/elements/1.1/">
  <metadata
     id="metadata12">
    <rdf:RDF>
      <cc:Work
         rdf:about="">
        <dc:format>image/svg+xml</dc:format>
        <dc:type
           rdf:resource="http://purl.org/dc/dcmitype/StillImage" />
      </cc:Work>
    </rdf:RDF>
  </metadata>
  <defs
     id="defs10">
    <inkscape:path-effect
       is_visible="true"
       id="path-effect4225"
       effect="spiro" />
    <inkscape:path-effect
       effect="spiro"
       id="path-effect4221"
       is_visible="true" />
    <inkscape:path-effect
       effect="spiro"
       id="path-effect4213"
       is_visible="true" />
    <inkscape:path-effect
       is_visible="true"
       id="path-effect4209"
       effect="spiro" />
    <inkscape:path-effect
       effect="spiro"
       id="path-effect4204"
       is_visible="true" />
    <inkscape:path-effect
       is_visible="true"
       id="path-effect4191"
       effect="spiro" />
    <inkscape:path-effect
       effect="spiro"
       id="path-effect4187"
       is_visible="true" />
    <inkscape:path-effect
       effect="spiro"
       id="path-effect4183"
       is_visible="true" />
    <inkscape:path-effect
       is_visible="true"
       id="path-effect4179"
       effect="spiro" />
    <inkscape:path-effect
       effect="spiro"
       id="path-effect4173"
       is_visible="true" />
    <inkscape:path-effect
       is_visible="true"
       id="path-effect4169"
       effect="spiro" />
    <inkscape:path-effect
       effect="spiro"
       id="path-effect4165"
       is_visible="true" />
  </defs>
  <sodipodi:namedview
     borderopacity="1"
     objecttolerance="10"
     gridtolerance="10"
     guidetolerance="10"
     inkscape:pageopacity="0"
     inkscape:pageshadow="2"
     inkscape:window-width="1556"
     inkscape:window-height="1250"
     id="namedview8"
     showgrid="false"
     inkscape:zoom="2.88"
     inkscape:cx="96.354167"
     inkscape:cy="86.284722"
     inkscape:window-x="1690"
     inkscape:window-y="81"
     inkscape:window-maximized="0"
     inkscape:current-layer="g4"
     pagecolor="#ffffff"
     bordercolor="#000000"
     inkscape:showpageshadow="2"
     inkscape:pagecheckerboard="0"
     inkscape:deskcolor="#d1d1d1" />
  <g
     transform="translate(0,-952.36218)"
     id="g4">
    <g
       id="g2"
       transform="matrix(0.89029824,0,0,0.89029824,5.4849211,957.84738)">
      <path
         d="M 77.926,94.924 H 8.217 C 6.441,94.924 5,93.484 5,91.706 V 21.997 C 5,20.22 6.441,18.78 8.217,18.78 h 34.854 c 1.777,0 3.217,1.441 3.217,3.217 0,1.776 -1.441,3.217 -3.217,3.217 H 11.435 V 88.489 H 74.709 V 56.851 c 0,-1.777 1.441,-3.217 3.217,-3.217 1.777,0 3.217,1.441 3.217,3.217 v 34.855 c 0.001,1.778 -1.44,3.218 -3.217,3.218 z"
         id="path1" />
      <path
         d="M 94.059,16.034 84.032,6.017 c -1.255,-1.255 -3.292,-1.255 -4.547,0 L 70.423,15.09 35.396,50.116 c -0.29,0.29 -0.525,0.633 -0.686,1.008 l -7.496,17.513 c -0.526,1.212 -0.247,2.617 0.676,3.539 0.622,0.622 1.437,0.944 2.274,0.944 0.429,0 0.858,-0.086 1.276,-0.257 l 17.513,-7.496 c 0.375,-0.161 0.719,-0.397 1.008,-0.686 L 84.987,29.655 94.06,20.593 c 1.254,-1.267 1.254,-3.304 -0.001,-4.559 z m -57.773,47.756 2.928,-6.821 3.893,3.893 z M 46.925,58.621 41.456,53.152 73.007,21.6 l 5.47,5.469 z m 34.586,-34.587 -5.469,-5.469 5.716,-5.716 5.469,5.459 z"
         id="path2" />
    </g>
  </g>
</svg>
