<?xml version="1.0" encoding="UTF-8" standalone="no"?>
<svg
   id="Ebene_1"
   viewBox="0 0 463.26998 177.41"
   version="1.1"
   sodipodi:docname="opsi-logo.svg"
   width="463.26999"
   height="177.41"
   inkscape:version="1.3 (0e150ed6c4, 2023-07-21)"
   xmlns:inkscape="http://www.inkscape.org/namespaces/inkscape"
   xmlns:sodipodi="http://sodipodi.sourceforge.net/DTD/sodipodi-0.dtd"
   xmlns="http://www.w3.org/2000/svg"
   xmlns:svg="http://www.w3.org/2000/svg">
  <sodipodi:namedview
     id="namedview26"
     pagecolor="#ffffff"
     bordercolor="#000000"
     borderopacity="0.25"
     inkscape:showpageshadow="2"
     inkscape:pageopacity="0.0"
     inkscape:pagecheckerboard="0"
     inkscape:deskcolor="#d1d1d1"
     inkscape:zoom="1.1584679"
     inkscape:cx="324.13501"
     inkscape:cy="88.478931"
     inkscape:window-width="1556"
     inkscape:window-height="1250"
     inkscape:window-x="1772"
     inkscape:window-y="16"
     inkscape:window-maximized="0"
     inkscape:current-layer="g26" />
  <defs
     id="defs1">
    <style
       id="style1">.cls-1{fill:#cb1d58;}.cls-2{fill:#e3e3e3;}</style>
  </defs>
  <g
     id="g26">
    <g
       id="g5">
      <path
         class="cls-2"
         d="m 256.71,101.44 c 0,-18.92 -14.33,-33.02 -33.36,-33.02 -19.03,0 -33.48,14.1 -33.48,33.02 0,18.92 14.33,33.02 33.48,33.02 19.15,0 33.36,-14.1 33.36,-33.02 m -75.67,0 c 0,-23.39 18,-40.93 42.31,-40.93 24.31,0 42.19,17.43 42.19,40.93 0,23.5 -18,40.93 -42.19,40.93 -24.19,0 -42.31,-17.54 -42.31,-40.93"
         id="path1" />
      <path
         class="cls-2"
         d="m 280.83,61.31 h 30.04 c 20.52,0 32.91,10.32 32.91,27.52 0,17.2 -12.38,27.52 -32.91,27.52 h -21.32 v 25.22 h -8.83 v -32.9 h 29.93 c 15.93,0 24.31,-7.22 24.31,-19.83 0,-12.61 -8.37,-19.83 -24.31,-19.83 h -29.93 l 0.12,-7.68 z"
         id="path2" />
      <path
         class="cls-2"
         d="m 355.15,131.82 3.44,-6.76 c 5.74,5.62 15.94,9.75 26.48,9.75 14.91,0 21.44,-6.19 21.44,-13.99 0,-21.78 -49.3,-8.37 -49.3,-38.07 0,-11.92 9.17,-22.24 29.58,-22.24 9.17,0 18.57,2.75 25.11,7.22 l -3.09,6.99 c -6.76,-4.47 -14.91,-6.65 -22.01,-6.65 -14.56,0 -20.98,6.42 -20.98,14.33 0,21.78 49.3,8.6 49.3,37.83 0,11.81 -9.4,22.13 -29.92,22.13 -12.15,0 -23.96,-4.36 -30.04,-10.55"
         id="path3" />
      <rect
         class="cls-1"
         x="429.64001"
         y="61.310001"
         width="8.8299999"
         height="8.8299999"
         id="rect3" />
      <rect
         class="cls-2"
         x="429.64001"
         y="96.089996"
         width="8.8299999"
         height="45.48"
         id="rect4" />
      <rect
         class="cls-1"
         x="429.64001"
         y="78.43"
         width="8.8299999"
         height="8.8299999"
         id="rect5" />
    </g>
  </g>
  <path
     class="cls-1"
     d="m 159.48,39.46 c -7.84,-5.21 -17.92,-6.2 -26.71,-2.49 l -18.33,8.65 V 30.26 l -6.67,-3.85 6.55,-9.83 -7.18,-4.79 -6.85,10.29 -5.11,-2.95 -6.03,3.49 -4.98,-11.07 -7.87,3.54 5.34,11.86 -5.73,3.31 V 45.44 L 57.65,36.63 C 49,32.9 38.83,33.79 30.94,38.97 22.98,44.21 18.23,53.04 18.23,62.58 v 2.77 c 0,14.85 11.51,27.04 26.07,28.16 V 83.87 C 35,82.77 27.74,74.94 27.74,65.35 v -2.77 c 0,-6.31 3.15,-12.16 8.43,-15.65 5.2,-3.43 11.99,-4 17.61,-1.61 L 84.09,59.94 51.76,75.21 v 49.89 l 34.89,20.15 8.54,17.68 8.79,-18.37 33.7,-19.46 v -30.17 0 -18.76 0 -0.94 l -22.97,-11.1 -10.87,5.34 24.33,11.74 V 119.6 L 94.72,138.9 61.29,119.6 V 81.25 L 136.6,45.67 c 5.82,-2.42 12.36,-1.81 17.64,1.68 5.34,3.56 8.39,9.27 8.39,15.67 0,9.92 -7.74,17.98 -17.49,18.67 v 9.59 c 15.01,-0.7 27.01,-13.09 27.01,-28.27 0,-9.5 -4.73,-18.32 -12.65,-23.59 z M 105.8,49.7 95.13,54.74 84.51,49.62 V 35.26 l 10.64,-6.15 10.64,6.15 v 14.45 z"
     id="path26" />
</svg>
